# xmcd
#
# Track frame offsets: 
#        150
#        15109
#        38830
#        55462
#        73810
#        93707
#        113542
#        127920
#        151871
#        173397
#        196572
#        216788
#        239240
#        258836
#        278412
#        302947
#
# Disc length: 4631 seconds
#
# Revision: 2
# Processed by: cddbd v1.5.2PL0 Copyright (c) Steve Scherf et al.
# Submitted via: ExactAudioCopyFreeDBPlugin 1.0
#
DISCID=cc121510
DTITLE=Lil Wayne - Tha Carter III
DYEAR=2008
DGENRE=Hip-Hop
TTITLE0=3 Peat
TTITLE1=Mr. Carter (feat. Jay-Z)
TTITLE2=A Milli
TTITLE3=Got Money (feat. T-Pain)
TTITLE4=Comfortable (feat. Babyface)
TTITLE5=Dr. Carter
TTITLE6=Phone Home
TTITLE7=Tie My Hands (feat. Robin Thicke)
TTITLE8=Mrs. Officer (feat. Bobby Valentino)
TTITLE9=Let the Beat Build
TTITLE10=Shoot Me Down (feat. D. Smith)
TTITLE11=Lollipop (feat. Static Major)
TTITLE12=La La (feat. Brisco and Busta Rhymes)
TTITLE13=Playing With Fire (feat. Betty Wright)
TTITLE14=You Ain't Got Nuthin (feat. Juelz Santana and Fabolous)
TTITLE15=Dontgetit
EXTD=
EXTT0=
EXTT1=
EXTT2=
EXTT3=
EXTT4=
EXTT5=
EXTT6=
EXTT7=
EXTT8=
EXTT9=
EXTT10=
EXTT11=
EXTT12=
EXTT13=
EXTT14=
EXTT15=
PLAYORDER=
